HIERARCHY
ROOT Pelvis
{
	OFFSET 0.000000 0.000000 0.000000
	CHANNELS 6 Xposition Yposition Zposition Xrotation Yrotation Zrotation
	JOINT LeftUpLeg_virtual
	{
		OFFSET 0.000000 0.000000 0.000000
		CHANNELS 3 Xrotation Yrotation Zrotation
		JOINT LeftUpLeg
		{
			OFFSET 18.735201 -5.666702 -4.541200
			CHANNELS 3 Xrotation Yrotation Zrotation
			JOINT LeftLeg
			{
				OFFSET -0.021200 -31.938179 0.493100
				CHANNELS 3 Xrotation Yrotation Zrotation
				JOINT LeftFoot
				{
					OFFSET 0.021200 -31.938179 -4.336299
					CHANNELS 3 Xrotation Yrotation Zrotation
					JOINT LeftToeBase
					{
						OFFSET 0.943001 -26.722000 15.023500
						CHANNELS 3 Xrotation Yrotation Zrotation
						End Site
						{
							OFFSET 0 0 0
						}
					}
				}
			}
		}
	}
	JOINT RightUpLeg_virtual
	{
		OFFSET 0.000000 0.000000 0.000000
		CHANNELS 3 Xrotation Yrotation Zrotation
		JOINT RightUpLeg
		{
			OFFSET -18.735201 -5.666702 -4.541200
			CHANNELS 3 Xrotation Yrotation Zrotation
			JOINT RightLeg
			{
				OFFSET 0.018946 -31.938133 0.493100
				CHANNELS 3 Xrotation Yrotation Zrotation
				JOINT RightFoot
				{
					OFFSET -0.018946 -31.938126 -4.336299
					CHANNELS 3 Xrotation Yrotation Zrotation
					JOINT RightToeBase
					{
						OFFSET -0.943001 -26.722004 15.023500
						CHANNELS 3 Xrotation Yrotation Zrotation
						End Site
						{
							OFFSET 0 0 0
						}
					}
				}
			}
		}
	}
	JOINT Hips_virtual
	{
		OFFSET 0.000000 0.000000 0.000000
		CHANNELS 3 Xrotation Yrotation Zrotation
		JOINT Hips
		{
			OFFSET -0.000000 -0.000000 -0.000000
			CHANNELS 3 Xrotation Yrotation Zrotation
			JOINT Spine
			{
				OFFSET 0.000000 10.199997 -0.299500
				CHANNELS 3 Xrotation Yrotation Zrotation
				JOINT Spine1
				{
					OFFSET 0.000000 11.900002 -1.516600
					CHANNELS 3 Xrotation Yrotation Zrotation
					JOINT Spine2
					{
						OFFSET 0.000000 13.600006 -2.842500
						CHANNELS 3 Xrotation Yrotation Zrotation
						JOINT Neck_virtual
						{
							OFFSET 0.000000 0.000000 0.000000
							CHANNELS 3 Xrotation Yrotation Zrotation
							JOINT Neck
							{
								OFFSET 0.000000 9.624100 -2.890100
								CHANNELS 3 Xrotation Yrotation Zrotation
								JOINT Head
								{
									OFFSET 0.000000 14.068802 -1.351900
									CHANNELS 3 Xrotation Yrotation Zrotation
									End Site
									{
										OFFSET 0 0 0
									}
								}
							}
						}
						JOINT LeftShoulder_virtual
						{
							OFFSET 0.000000 0.000000 0.000000
							CHANNELS 3 Xrotation Yrotation Zrotation
							JOINT LeftShoulder
							{
								OFFSET 15.263000 10.923401 -0.547700
								CHANNELS 3 Xrotation Yrotation Zrotation
								JOINT LeftArm
								{
									OFFSET 25.438599 -2.830597 -13.032500
									CHANNELS 3 Xrotation Yrotation Zrotation
									JOINT LeftForeArm
									{
										OFFSET 29.960503 0.000000 0.000000
										CHANNELS 3 Xrotation Yrotation Zrotation
										JOINT LeftHand
										{
											OFFSET 27.849251 0.000000 0.000000
											CHANNELS 3 Xrotation Yrotation Zrotation
											End Site
											{
												OFFSET 0 0 0
											}
										}
									}
								}
							}
						}
						JOINT RightShoulder_virtual
						{
							OFFSET 0.000000 0.000000 0.000000
							CHANNELS 3 Xrotation Yrotation Zrotation
							JOINT RightShoulder
							{
								OFFSET -15.263000 10.923401 -0.547700
								CHANNELS 3 Xrotation Yrotation Zrotation
								JOINT RightArm
								{
									OFFSET -25.438599 -2.830597 -13.032500
									CHANNELS 3 Xrotation Yrotation Zrotation
									JOINT RightForeArm
									{
										OFFSET -29.960503 0.000000 0.000000
										CHANNELS 3 Xrotation Yrotation Zrotation
										JOINT RightHand
										{
											OFFSET -27.849251 0.000000 0.000000
											CHANNELS 3 Xrotation Yrotation Zrotation
											End Site
											{
												OFFSET 0 0 0
											}
										}
									}
								}
							}
						}
					}
				}
			}
		}
	}
}
MOTION
Frames: 12
Frame Time: 0.03333333
4.837926 90.010551 6.612838 0.000000 0.000000 0.000000 12.324349 -27.404606 1.358312 -24.851146 5.004664 13.393457 38.928311 4.940036 -2.649708 -9.087571 6.366868 -6.390630 0.000000 0.000000 0.000000 11.700832 0.105045 1.518929 -15.418069 -6.345936 -13.443513 37.660881 -20.747391 8.815721 -15.424145 -26.501923 10.599488 0.000000 0.000000 0.000000 4.860328 13.958615 -0.334433 -5.702327 4.022708 6.689737 11.069504 10.104578 2.488308 5.039396 6.161568 1.684956 0.000000 0.000000 0.000000 0.015192 1.462211 -0.779594 -2.009606 -0.493172 0.313049 0.000000 0.000000 0.000000 2.947117 7.814016 0.972871 -1.834243 6.149230 11.503012 -74.247114 2.880050 -8.936269 -25.222003 -35.817109 -0.673357 0.000000 0.000000 0.000000 6.498752 5.004775 -0.954105 3.409865 9.614552 1.819643 11.399062 -21.636502 69.898175 1.178476 2.517319 23.261847 0.000000 0.000000 0.000000 
5.087885 89.667351 6.948549 0.000000 0.000000 0.000000 12.626833 -27.678891 1.160613 -24.496393 5.095596 13.076732 39.739752 4.246346 -2.642550 -8.424598 5.627716 -6.807615 0.000000 0.000000 0.000000 11.675768 -0.365304 1.529494 -15.409680 -6.465786 -13.472809 35.313000 -20.906850 8.528061 -17.132240 -26.567558 10.391053 0.000000 0.000000 0.000000 6.065056 17.571918 -0.710264 -6.777567 4.275629 6.967775 9.846607 10.959687 1.681236 4.606858 6.660622 1.084852 0.000000 0.000000 0.000000 -0.071122 1.670382 -0.915644 -2.285999 -0.746351 0.518737 0.000000 0.000000 0.000000 2.785007 8.742637 0.275276 -2.253033 7.988557 10.091546 -79.697707 6.533201 -9.203192 -30.075744 -35.707566 -2.411616 0.000000 0.000000 0.000000 6.699771 5.606149 -1.384427 3.007294 10.443599 1.573608 11.179488 -20.677498 68.725391 1.853377 0.899070 23.395399 0.000000 0.000000 0.000000 
5.314598 89.324806 7.220376 0.000000 0.000000 0.000000 12.950328 -28.192352 0.978622 -24.215981 5.144157 12.763753 40.633113 3.622160 -2.650942 -7.692427 4.962912 -7.209925 0.000000 0.000000 0.000000 11.681656 -0.891513 1.573007 -15.424177 -6.613359 -13.501103 32.974603 -20.928536 8.246380 -18.797222 -26.521956 10.282597 0.000000 0.000000 0.000000 7.297493 20.895758 -1.143213 -7.781314 4.395470 7.229528 8.668914 11.751124 0.909616 4.202866 7.111297 0.493579 0.000000 0.000000 0.000000 -0.098815 1.889378 -1.058683 -2.533887 -0.974228 0.716575 0.000000 0.000000 0.000000 2.691802 9.528871 -0.507372 -2.537752 9.394207 8.299335 -83.883302 9.968704 -9.770114 -34.489511 -35.831961 -4.326307 0.000000 0.000000 0.000000 6.959705 6.164603 -1.793389 2.649930 11.175090 1.378725 11.034700 -19.354876 67.143136 2.506780 -0.084572 23.299865 0.000000 0.000000 0.000000 
5.509292 88.998665 7.432531 0.000000 0.000000 0.000000 13.298178 -28.920045 0.814327 -23.989788 5.154779 12.452394 41.575273 3.083445 -2.667455 -6.911922 4.386216 -7.575849 0.000000 0.000000 0.000000 11.721020 -1.478323 1.658834 -15.450911 -6.791407 -13.516026 30.677996 -20.826461 7.975008 -20.399332 -26.380443 10.258091 0.000000 0.000000 0.000000 8.543927 23.930746 -1.627350 -8.748346 4.401694 7.451824 7.549714 12.472994 0.187578 3.834043 7.512089 -0.077251 0.000000 0.000000 0.000000 -0.073499 2.110146 -1.209972 -2.753510 -1.178466 0.902617 0.000000 0.000000 0.000000 2.679218 10.168827 -1.352389 -2.685481 10.367603 6.199873 -86.796514 13.230315 -10.756827 -38.349542 -36.212201 -6.430273 0.000000 0.000000 0.000000 7.272131 6.672643 -2.181168 2.338560 11.799371 1.209238 10.911221 -17.772096 65.085761 3.089649 -0.502049 22.931223 0.000000 0.000000 0.000000 
5.670959 88.700592 7.591009 0.000000 0.000000 0.000000 13.668105 -29.825701 0.670335 -23.802048 5.132238 12.143217 42.532992 2.631986 -2.686492 -6.105942 3.897852 -7.894898 0.000000 0.000000 0.000000 11.788111 -2.129944 1.789403 -15.489542 -6.999655 -13.512319 28.452481 -20.616441 7.715502 -21.922354 -26.158028 10.298324 0.000000 0.000000 0.000000 9.790466 26.681996 -2.155685 -9.707567 4.318552 7.598541 6.502456 13.122100 -0.475689 3.506730 7.863200 -0.618512 0.000000 0.000000 0.000000 -0.004176 2.325264 -1.368461 -2.946651 -1.360669 1.074107 0.000000 0.000000 0.000000 2.752232 10.671692 -2.231302 -2.712101 10.955198 3.894406 -88.476720 16.349572 -12.225912 -41.591699 -36.837297 -8.704027 0.000000 0.000000 0.000000 7.623199 7.124934 -2.548483 2.067377 12.313021 1.037708 10.738495 -16.059563 62.517364 3.555108 -0.460219 22.272417 0.000000 0.000000 0.000000 
5.805454 88.437080 7.701902 0.000000 0.000000 0.000000 14.051343 -30.860772 0.548007 -23.644004 5.082617 11.839271 43.476019 2.258948 -2.704431 -5.297576 3.488147 -8.166184 0.000000 0.000000 0.000000 11.870526 -2.849572 1.961262 -15.548326 -7.235290 -13.490732 26.323423 -20.315788 7.467124 -23.354319 -25.869046 10.382445 0.000000 0.000000 0.000000 11.023698 29.158160 -2.720227 -10.675701 4.175471 7.626821 5.539964 13.696443 -1.073958 3.226343 8.165472 -1.122705 0.000000 0.000000 0.000000 0.098071 2.528586 -1.531767 -3.116000 -1.522562 1.229080 0.000000 0.000000 0.000000 2.910568 11.055578 -3.111846 -2.643181 11.233719 1.503124 -88.989237 19.328735 -14.194426 -44.192861 -37.671000 -11.091817 0.000000 0.000000 0.000000 7.995212 7.518836 -2.894771 1.826782 12.720038 0.844506 10.441243 -14.347149 59.451319 3.867653 -0.081672 21.342591 0.000000 0.000000 0.000000 
5.922197 88.208626 7.771283 0.000000 0.000000 0.000000 14.433699 -31.967300 0.446642 -23.514132 5.013470 11.545882 44.379998 1.949254 -2.719209 -4.507557 3.141676 -8.395326 0.000000 0.000000 0.000000 11.952541 -3.638399 2.167489 -15.639859 -7.493831 -13.455287 24.311193 -19.942974 7.227582 -24.687746 -25.527200 10.489668 0.000000 0.000000 0.000000 12.231311 31.369549 -3.311830 -11.651624 4.004601 7.496427 4.674016 14.193993 -1.602245 2.997135 8.419540 -1.583192 0.000000 0.000000 0.000000 0.221385 2.714914 -1.696939 -3.264580 -1.666083 1.366103 0.000000 0.000000 0.000000 3.149204 11.342590 -3.961375 -2.505776 11.292389 -0.850378 -88.416116 22.138185 -16.647442 -46.161010 -38.664813 -13.511282 0.000000 0.000000 0.000000 8.369751 7.854450 -3.216751 1.605653 13.031058 0.625690 9.951558 -12.738752 55.963684 4.008268 0.517938 20.197998 0.000000 0.000000 0.000000 
6.030295 88.010162 7.806295 0.000000 0.000000 0.000000 14.798021 -33.083633 0.363517 -23.416247 4.933346 11.270131 45.228246 1.686015 -2.729649 -3.751895 2.841327 -8.590723 0.000000 0.000000 0.000000 12.019180 -4.494329 2.400370 -15.775683 -7.770132 -13.410187 22.430305 -19.517228 6.993911 -25.919591 -25.145746 10.600926 0.000000 0.000000 0.000000 13.401956 33.325859 -3.919876 -12.614602 3.836014 7.179240 3.914910 14.612216 -2.056117 2.822103 8.625470 -1.993985 0.000000 0.000000 0.000000 0.354272 2.879904 -1.860822 -3.395331 -1.793302 1.484225 0.000000 0.000000 0.000000 3.458486 11.554707 -4.750601 -2.323407 11.217835 -3.055714 -86.856715 24.723620 -19.546215 -47.527301 -39.768121 -15.869956 0.000000 0.000000 0.000000 8.729710 8.134205 -3.508026 1.392714 13.260794 0.396016 9.219441 -11.298004 52.195530 3.974869 1.244955 18.924036 0.000000 0.000000 0.000000 
6.135819 87.833191 7.816417 0.000000 0.000000 0.000000 15.127247 -34.151581 0.294431 -23.356556 4.850862 11.019685 46.011969 1.454080 -2.734928 -3.040555 2.571611 -8.760435 0.000000 0.000000 0.000000 12.059800 -5.410803 2.653539 -15.961671 -8.059158 -13.357445 20.688778 -19.057925 6.763258 -27.050879 -24.737712 10.700231 0.000000 0.000000 0.000000 14.524170 35.034987 -4.531863 -13.529087 3.692886 6.666570 3.270745 14.948528 -2.432176 2.702803 8.782953 -2.350156 0.000000 0.000000 0.000000 0.486362 3.020237 -2.020150 -3.510936 -1.906205 1.583055 0.000000 0.000000 0.000000 3.824632 11.711334 -5.456522 -2.114294 11.084493 -5.028144 -84.434109 27.017942 -22.828644 -48.340138 -40.932777 -18.080563 0.000000 0.000000 0.000000 9.060488 8.362136 -3.760230 1.177658 13.424972 0.184622 8.220007 -10.048854 48.338451 3.779131 2.033070 17.619783 0.000000 0.000000 0.000000 
6.240965 87.668930 7.813863 0.000000 0.000000 0.000000 15.407162 -35.123302 0.234454 -23.340689 4.773622 10.801224 46.729129 1.242057 -2.734448 -2.377582 2.320697 -8.910563 0.000000 0.000000 0.000000 12.070187 -6.375964 2.923076 -16.195564 -8.356344 -13.295823 19.087763 -18.583758 6.533423 -28.086243 -24.315853 10.775481 0.000000 0.000000 0.000000 15.584840 36.503813 -5.133189 -14.355944 3.589439 5.972838 2.746507 15.201430 -2.729223 2.639040 8.891973 -2.648640 0.000000 0.000000 0.000000 0.608764 3.133899 -2.171599 -3.613858 -2.006451 1.662832 0.000000 0.000000 0.000000 4.231038 11.828277 -6.063929 -1.891634 10.950310 -6.714161 -81.302774 28.954685 -26.404659 -48.660617 -42.114130 -20.070851 0.000000 0.000000 0.000000 9.351051 8.543209 -3.965587 0.952795 13.538232 0.024132 6.955695 -8.987296 44.602450 3.441524 2.841562 16.378952 0.000000 0.000000 0.000000 
6.344683 87.511276 7.812620 0.000000 0.000000 0.000000 15.628446 -35.966233 0.178629 -23.371523 4.707360 10.618906 47.382539 1.042745 -2.728106 -1.762453 2.081086 -9.045274 0.000000 0.000000 0.000000 12.052844 -7.372691 3.207577 -16.467029 -8.657656 -13.221109 17.621849 -18.111648 6.303031 -29.033331 -23.892188 10.818711 0.000000 0.000000 0.000000 16.568548 37.741040 -5.707681 -15.065821 3.533084 5.134855 2.343281 15.371761 -2.949436 2.628584 8.953604 -2.888992 0.000000 0.000000 0.000000 0.714234 3.220362 -2.311877 -3.706436 -2.095227 1.724444 0.000000 0.000000 0.000000 4.660204 11.917634 -6.565446 -1.664644 10.855842 -8.090435 -77.651731 30.481276 -30.152871 -48.559052 -43.272237 -21.788577 0.000000 0.000000 0.000000 9.595113 8.682844 -4.119839 0.715108 13.613518 -0.062132 5.453382 -8.096291 41.174897 2.986587 3.650348 15.273246 0.000000 0.000000 0.000000 
6.443887 87.358444 7.826352 0.000000 0.000000 0.000000 15.787736 -36.664469 0.122581 -23.447816 4.655620 10.473449 47.977783 0.852522 -2.716681 -1.192054 1.849292 -9.167745 0.000000 0.000000 0.000000 12.015822 -8.379718 3.507465 -16.759493 -8.959484 -13.127287 16.280398 -17.655819 6.071481 -29.901831 -23.477370 10.825728 0.000000 0.000000 0.000000 17.458879 38.760572 -6.239327 -15.648132 3.530118 4.206467 2.057879 15.463439 -3.098964 2.667082 8.970552 -3.073765 0.000000 0.000000 0.000000 0.797382 3.280478 -2.437874 -3.790880 -2.173301 1.769390 0.000000 0.000000 0.000000 5.095675 11.987940 -6.960450 -1.439704 10.824979 -9.158296 -73.697803 31.570367 -33.925454 -48.112655 -44.374465 -23.203787 0.000000 0.000000 0.000000 9.792016 8.786591 -4.224125 0.467751 13.662508 -0.068760 3.758491 -7.356485 38.185983 2.439741 4.454760 14.343136 0.000000 0.000000 0.000000 
